<?xml version="1.0" encoding="utf-8"?>
<!-- Generator: Adobe Illustrator 27.3.1, SVG Export Plug-In . SVG Version: 6.00 Build 0)  -->
<svg version="1.1" id="Layer_1" xmlns="http://www.w3.org/2000/svg" xmlns:xlink="http://www.w3.org/1999/xlink" x="0px" y="0px"
	 viewBox="0 0 476 176.8" style="enable-background:new 0 0 476 176.8;" xml:space="preserve">
<g>
	<g>
		<path d="M21.7,48.5h-8.8v37.4H0V0.8h12.9v34.1h8.8V0.8h12.9V86H21.7V48.5z"/>
		<path d="M56.8,86.9h-2.5c-10.3,0-15.8-5.6-15.8-16.1V53.7h12.8v14.9c0,3.9,1.3,6,4.2,6c3.1,0,4.2-2.1,4.2-7.3v-1.9
			c0-6.1-0.6-8.2-5.3-14.3l-8.1-10.7c-5.5-7.1-7.1-12.6-7.1-21.1v-2.7C39.2,5.3,44.9,0,55.1,0h2.4c10.6,0,14.8,4.7,14.8,14.8v14
			H59.8V16.5c0-2.9-0.6-5-3.7-5s-3.8,1.9-3.8,6v1.6c0,4.8,0.9,7.4,5.3,13.1l8.2,10.6c5.8,7.6,7.7,11.9,7.7,21.5V67
			C73.5,79.5,68.1,86.9,56.8,86.9z"/>
		<path d="M106.6,0.8v12.4H90.1v22.3H103v12.9H90.1V73h17.2v12.9H77.2V0.8H106.6z"/>
		<path d="M142.2,69.9h-9.4l-1.7,16h-11.6l10.4-85.2h15.3l11.1,85.2h-12.5L142.2,69.9z M140.8,57.2l-3.4-31.5l-3.3,31.5H140.8z"/>
		<path d="M171.4,86h-12.9V0.8h21c8.6,0,12.9,3.7,12.9,13.2v15.1c0,7.1-3.3,9.8-5.6,10.9c2.9,1.3,5.6,3.6,5.6,9.3v29.9
			c0,3.4,0.7,5,1.3,6.3v0.6h-12.8c-0.6-0.9-1.3-2.4-1.3-7V53.3c0-3.8-0.7-5.4-4.8-5.4h-3.3L171.4,86L171.4,86z M171.4,35.8h3.4
			c3.6,0,4.7-2.3,4.7-6.1V17.8c0-3.7-0.8-5.5-4.7-5.5h-3.4V35.8z"/>
		<path d="M218.5,13.1v72.8h-12.8V13.1h-10.9V0.8h34.6v12.4L218.5,13.1L218.5,13.1z"/>
		<path d="M264,69.9h-9.4l-1.7,16h-11.6l10.4-85.2H267l11.1,85.2h-12.5L264,69.9z M262.6,57.2l-3.4-31.5l-3.3,31.5H262.6z"/>
		<path d="M291.9,0.8L303,46.5V0.8h11.8V86h-10.5l-12.4-49v49h-11.7V0.8H291.9z"/>
		<path d="M319.6,0.8h19.9c11.1,0,14.5,6.3,14.5,16.4v51.9c0,10.4-3.9,16.9-14.5,16.9h-19.8V0.8H319.6z M332.6,73.6h3.1
			c3.9,0,5-2.1,5-6.6V19c0-4.9-1.3-6.6-4.5-6.6h-3.7v61.2H332.6z"/>
	</g>
	<g>
		<path d="M0,90.4h19.8c11.1,0,14.5,6.3,14.5,16.4v51.9c0,10.4-3.9,16.9-14.5,16.9H0V90.4z M12.9,163.3H16c3.9,0,5-2.1,5-6.6v-48
			c0-4.9-1.3-6.6-4.5-6.6h-3.7L12.9,163.3L12.9,163.3z"/>
		<path d="M68.4,90.4v12.4H51.9v22.3h12.9V138H51.9v24.6h17.2v12.9H38.9V90.4H68.4z"/>
		<path d="M89.7,176.5h-2.5c-10.3,0-15.8-5.6-15.8-16.1v-17.1h12.8v14.9c0,3.9,1.3,6,4.2,6c3.1,0,4.2-2.1,4.2-7.3V155
			c0-6.1-0.6-8.2-5.3-14.3l-8.2-10.5c-5.5-7.1-7.1-12.6-7.1-21.1v-2.7c0-11.3,5.7-16.6,15.9-16.6h2.4c10.7,0,14.8,4.7,14.8,14.8v14
			H92.6v-12.3c0-2.9-0.6-5-3.7-5s-3.8,1.9-3.8,6v1.6c0,4.8,0.9,7.4,5.3,13.1l8.2,10.6c5.8,7.6,7.7,11.9,7.7,21.5v2.7
			C106.4,169.1,101,176.5,89.7,176.5z"/>
		<path d="M123,175.6h-12.9V90.4H123V175.6z"/>
		<path d="M139.8,176.8c-7.6,0-12.4-6.8-12.4-15.6v-53.3c0-9.5,3.7-18.3,15.9-18.3h2.5c13.9,0,15.5,9,15.5,19.1v8.7h-12.6v-9.6
			c0-3.8-0.9-5.8-4.1-5.8c-2.7,0-4,2.1-4,5.8v49.8c0,4,1.6,6.1,4.2,6.1c3.3,0,4.8-2.3,4.8-5.5v-21.3h-5.8v-13.1h18.1v51.8h-7.3
			c-0.1-0.5-1.1-4.7-2.2-8.4c-0.9,2.9-5.3,9.5-11.8,9.5h-0.8L139.8,176.8L139.8,176.8z"/>
		<path d="M178.1,90.4l11.1,45.7V90.4H201v85.2h-10.5l-12.4-49v49h-11.7V90.4H178.1z"/>
		<path d="M234.8,176.5h-2.5c-10.3,0-15.8-5.6-15.8-16.1v-17.1h12.8v14.9c0,3.9,1.3,6,4.2,6c3.1,0,4.2-2.1,4.2-7.3V155
			c0-6.1-0.6-8.2-5.3-14.3l-8.2-10.5c-5.5-7.1-7.1-12.6-7.1-21.1v-2.7c0-11.3,5.7-16.6,15.9-16.6h2.4c10.6,0,14.8,4.7,14.8,14.8v14
			h-12.5v-12.3c0-2.9-0.6-5-3.7-5s-3.8,1.9-3.8,6v1.6c0,4.8,0.9,7.4,5.3,13.1l8.2,10.6c5.8,7.6,7.7,11.9,7.7,21.5v2.7
			C251.5,169.1,246.1,176.5,234.8,176.5z"/>
		<path d="M276.3,158.3v-19.8H289v19.7c0,9.2-3,18.4-15.5,18.4h-2.9c-13.1,0-15.9-9.4-15.9-18v-52c0-8.7,3.8-17.1,15.5-17.1h3
			c14.2,0,15.8,9.4,15.8,17.7v15.2h-12.7v-15c0-3.7-1.1-5.6-4.4-5.6c-3.2,0-4,1.8-4,5.6V158c0,3.8,1.3,5.8,4.1,5.8
			C275.2,164.1,276.3,161.8,276.3,158.3z"/>
		<path d="M314.9,138.2h-8.8v37.4h-12.9V90.4h12.9v34.1h8.8V90.4h12.9v85.2h-12.9V138.2z"/>
		<path d="M367.7,156.6c0,11.9-4,20-16.5,20H349c-12.4,0-16.7-8.1-16.7-20v-47.4c0-11.8,4.5-19.6,16.6-19.6h2.2
			c12.6,0,16.6,7.8,16.6,19.5V156.6z M354.5,108.5c0-4.5-1.5-6.5-4.5-6.5c-3.3,0-4.6,2.2-4.6,6.5v49c0,3.7,1,6.5,4.7,6.5
			c3.4,0,4.4-2.9,4.4-6.5V108.5z"/>
		<path d="M407.2,156.6c0,11.9-4,20-16.5,20h-2.2c-12.4,0-16.7-8.1-16.7-20v-47.4c0-11.8,4.5-19.6,16.6-19.6h2.2
			c12.6,0,16.6,7.8,16.6,19.5V156.6z M394,108.5c0-4.5-1.5-6.5-4.5-6.5c-3.3,0-4.6,2.2-4.6,6.5v49c0,3.7,1,6.5,4.7,6.5
			c3.4,0,4.4-2.9,4.4-6.5V108.5z"/>
		<path d="M424.6,90.4v72h15.8v13.2h-28.7V90.4H424.6z"/>
	</g>
</g>
</svg>
